<?xml version="1.0" encoding="UTF-8"?>
<svg xmlns="http://www.w3.org/2000/svg" xmlns:xlink="http://www.w3.org/1999/xlink" viewBox="0 0 384 384" width="384px" height="384px">
<g id="surface135555044">
<path style=" stroke:none;fill-rule:nonzero;fill:rgb(100%,100%,100%);fill-opacity:1;" d="M 262.449219 144 L 224 144 L 224 112 C 224 95.488281 225.34375 85.089844 249.007812 85.089844 L 262.894531 85.089844 C 271.726562 85.089844 278.894531 77.921875 278.894531 69.089844 L 278.894531 49.023438 C 278.894531 40.65625 272.480469 33.503906 264.128906 32.945312 C 254.464844 32.289062 244.785156 31.984375 235.089844 32 C 191.679688 32 160 58.511719 160 107.183594 L 160 144 L 128 144 C 119.167969 144 112 151.167969 112 160 L 112 192 C 112 200.832031 119.167969 208 128 208 L 160 207.984375 L 160 336 C 160 344.832031 167.167969 352 176 352 L 208 352 C 216.832031 352 224 344.832031 224 336 L 224 207.953125 L 258.785156 207.9375 C 266.910156 207.9375 273.742188 201.839844 274.671875 193.761719 L 278.335938 161.824219 C 279.441406 152.335938 272.015625 144 262.449219 144 Z M 262.449219 144 "/>
</g>
</svg>
