<?xml version="1.0" encoding="UTF-8"?>
<svg xmlns="http://www.w3.org/2000/svg" xmlns:xlink="http://www.w3.org/1999/xlink" viewBox="0 0 500 500" width="500px" height="500px">
<g id="surface135549307">
<path style=" stroke:none;fill-rule:nonzero;fill:rgb(100%,100%,100%);fill-opacity:1;" d="M 171.875 109.375 C 94.21875 109.375 31.25 172.34375 31.25 250 C 31.25 327.65625 94.21875 390.625 171.875 390.625 C 249.53125 390.625 312.5 327.65625 312.5 250 C 312.5 240.351562 311.445312 230.9375 309.609375 221.875 L 308.828125 218.75 L 171.875 218.75 L 171.875 265.625 L 265.625 265.625 C 258.164062 309.960938 218.320312 343.75 171.875 343.75 C 120.078125 343.75 78.125 301.796875 78.125 250 C 78.125 198.203125 120.078125 156.25 171.875 156.25 C 195.3125 156.25 216.679688 164.921875 233.125 179.140625 L 266.71875 146.25 C 241.71875 123.359375 208.4375 109.375 171.875 109.375 Z M 390.625 171.875 L 390.625 218.75 L 343.75 218.75 L 343.75 250 L 390.625 250 L 390.625 296.875 L 421.875 296.875 L 421.875 250 L 468.75 250 L 468.75 218.75 L 421.875 218.75 L 421.875 171.875 Z M 390.625 171.875 "/>
</g>
</svg>
