<?xml version="1.0" encoding="UTF-8"?>
<svg xmlns="http://www.w3.org/2000/svg" xmlns:xlink="http://www.w3.org/1999/xlink" viewBox="0 0 512 512" width="512px" height="512px">
<g id="surface140515868">
<path style=" stroke:none;fill-rule:nonzero;fill:rgb(100%,100%,100%);fill-opacity:1;" d="M 138.28125 64 C 114.9375 64 96 82.90625 96 106.25 C 96 129.59375 114.921875 148.9375 138.25 148.9375 C 161.578125 148.9375 180.53125 129.59375 180.53125 106.25 C 180.53125 82.921875 161.625 64 138.28125 64 Z M 344.5625 176 C 309.058594 176 288.742188 194.566406 279 213.03125 L 277.96875 213.03125 L 277.96875 180.96875 L 208 180.96875 L 208 416 L 280.90625 416 L 280.90625 299.65625 C 280.90625 269 283.21875 239.375 321.15625 239.375 C 358.546875 239.375 359.09375 274.328125 359.09375 301.59375 L 359.09375 416 L 432 416 L 432 286.90625 C 432 223.738281 418.417969 176 344.5625 176 Z M 101.8125 180.96875 L 101.8125 416 L 174.78125 416 L 174.78125 180.96875 Z M 101.8125 180.96875 "/>
</g>
</svg>
