<?xml version="1.0" encoding="UTF-8"?>
<svg xmlns="http://www.w3.org/2000/svg" xmlns:xlink="http://www.w3.org/1999/xlink" viewBox="0 0 500 500" width="500px" height="500px">
<g id="surface140441982">
<path style=" stroke:none;fill-rule:nonzero;fill:rgb(100%,100%,100%);fill-opacity:1;" d="M 443.769531 59.863281 C 438.898438 60.078125 434.15625 61.433594 429.882812 63.144531 C 425.652344 64.84375 401.289062 75.242188 365.3125 90.625 C 329.335938 106.007812 282.570312 126.035156 236.210938 145.898438 C 143.492188 185.621094 52.382812 224.707031 52.382812 224.707031 L 53.046875 224.453125 C 53.046875 224.453125 47.546875 226.292969 41.972656 230.175781 C 39.183594 232.117188 36.1875 234.625 33.730469 238.28125 C 31.273438 241.9375 29.480469 247.117188 30.15625 252.597656 C 32.53125 271.84375 52.480469 277.304688 52.480469 277.304688 L 52.558594 277.34375 L 141.582031 307.8125 C 143.851562 315.382812 168.582031 397.929688 174.023438 415.410156 C 177.027344 425.074219 179.839844 430.648438 182.773438 434.453125 C 184.242188 436.355469 185.78125 437.828125 187.480469 438.90625 C 188.15625 439.335938 188.867188 439.65625 189.570312 439.941406 C 189.585938 439.949219 189.59375 439.933594 189.609375 439.941406 C 189.695312 439.980469 189.777344 439.984375 189.863281 440.019531 L 189.628906 439.960938 C 189.792969 440.027344 189.953125 440.136719 190.117188 440.195312 C 190.433594 440.304688 190.628906 440.300781 191.035156 440.390625 C 201.230469 443.949219 209.667969 437.34375 209.667969 437.34375 L 210.019531 437.070312 L 264.707031 386.347656 L 353.457031 455.546875 L 354.570312 456.054688 C 370.105469 462.953125 384.152344 459.105469 391.933594 452.773438 C 399.714844 446.441406 402.773438 438.28125 402.773438 438.28125 L 403.105469 437.421875 L 468.320312 97.519531 C 469.988281 89.914062 470.226562 83.34375 468.652344 77.402344 C 467.078125 71.460938 463.253906 66.300781 458.457031 63.4375 C 453.660156 60.574219 448.640625 59.648438 443.769531 59.863281 Z M 444.296875 80.195312 C 446.273438 80.105469 447.742188 80.328125 448.203125 80.605469 C 448.664062 80.882812 448.871094 80.84375 449.316406 82.519531 C 449.761719 84.195312 450 87.722656 448.789062 93.242188 L 448.75 93.359375 L 383.90625 431.289062 C 383.753906 431.628906 382.402344 434.753906 379.316406 437.265625 C 376.167969 439.828125 372.667969 441.824219 363.378906 437.929688 L 266.328125 362.246094 L 263.59375 360.097656 L 263.535156 360.15625 L 234.511719 338.378906 L 397.617188 146.484375 C 400.175781 143.480469 400.730469 139.25 399.03125 135.6875 C 397.328125 132.125 393.691406 129.898438 389.746094 130 C 387.859375 130.050781 386.023438 130.632812 384.453125 131.679688 L 148.4375 289.023438 L 59.277344 258.496094 C 59.277344 258.496094 50.425781 253.570312 50 250.136719 C 49.976562 249.945312 49.871094 250.117188 50.332031 249.433594 C 50.792969 248.75 51.949219 247.59375 53.398438 246.582031 C 56.296875 244.5625 59.609375 243.339844 59.609375 243.339844 L 59.941406 243.222656 L 60.273438 243.085938 C 60.273438 243.085938 151.390625 204 244.101562 164.277344 C 290.457031 144.417969 337.214844 124.402344 373.183594 109.023438 C 409.140625 93.648438 435.125 82.582031 437.324219 81.699219 C 439.828125 80.695312 442.320312 80.285156 444.296875 80.195312 Z M 336.132812 187.929688 L 212.441406 333.457031 L 212.382812 333.515625 C 212.191406 333.75 212.007812 333.988281 211.835938 334.238281 C 211.640625 334.507812 211.457031 334.789062 211.289062 335.078125 C 210.59375 336.257812 210.148438 337.566406 209.980469 338.925781 C 209.980469 338.953125 209.980469 338.976562 209.980469 339.003906 L 193.867188 411.464844 C 193.597656 410.683594 193.410156 410.394531 193.125 409.472656 L 193.125 409.453125 C 188.007812 393.007812 164.671875 315.160156 161.445312 304.394531 Z M 226.40625 357.304688 L 248.632812 373.984375 L 215.976562 404.257812 Z M 226.40625 357.304688 "/>
</g>
</svg>
