<?xml version="1.0" encoding="UTF-8"?>
<svg xmlns="http://www.w3.org/2000/svg" xmlns:xlink="http://www.w3.org/1999/xlink" viewBox="0 0 500 500" width="500px" height="500px">
<g id="surface135551083">
<path style=" stroke:none;fill-rule:nonzero;fill:rgb(100%,100%,100%);fill-opacity:1;" d="M 342.1875 54.6875 C 282.382812 54.6875 233.75 103.320312 233.75 163.125 C 233.75 166.71875 234.648438 170.234375 235 173.75 C 161.054688 166.679688 95.664062 131.054688 51.25 76.5625 C 49.179688 73.945312 45.976562 72.539062 42.617188 72.773438 C 39.296875 73.007812 36.328125 74.921875 34.6875 77.8125 C 25.351562 93.867188 20 112.34375 20 132.1875 C 20 156.210938 28.59375 178.203125 41.875 196.25 C 39.296875 195.117188 36.484375 194.492188 34.0625 193.125 C 30.976562 191.484375 27.265625 191.5625 24.257812 193.359375 C 21.25 195.15625 19.414062 198.398438 19.375 201.875 L 19.375 203.125 C 19.375 239.960938 38.4375 271.953125 66.5625 291.5625 C 66.25 291.523438 65.9375 291.640625 65.625 291.5625 C 62.1875 290.976562 58.710938 292.1875 56.40625 294.804688 C 54.101562 297.421875 53.359375 301.054688 54.375 304.375 C 65.546875 339.101562 94.0625 365.625 129.375 375.3125 C 101.25 392.03125 68.632812 401.875 33.4375 401.875 C 25.820312 401.875 18.515625 401.484375 11.25 400.625 C 6.5625 400 2.070312 402.734375 0.507812 407.1875 C -1.09375 411.640625 0.664062 416.601562 4.6875 419.0625 C 49.804688 448.007812 103.359375 465 160.9375 465 C 254.257812 465 327.460938 426.015625 376.5625 370.3125 C 425.664062 314.609375 451.25 242.265625 451.25 174.6875 C 451.25 171.835938 451.015625 169.0625 450.9375 166.25 C 469.257812 152.226562 485.625 135.78125 498.4375 116.5625 C 500.976562 112.851562 500.703125 107.890625 497.773438 104.453125 C 494.882812 101.015625 490 99.960938 485.9375 101.875 C 480.78125 104.179688 474.765625 104.414062 469.375 106.25 C 476.484375 96.757812 482.578125 86.523438 486.25 75 C 487.5 71.054688 486.132812 66.71875 482.890625 64.140625 C 479.648438 61.601562 475.117188 61.289062 471.5625 63.4375 C 454.492188 73.554688 435.585938 80.664062 415.625 85 C 396.25 66.875 370.742188 54.6875 342.1875 54.6875 Z M 342.1875 74.6875 C 367.695312 74.6875 390.742188 85.585938 406.875 102.8125 C 409.296875 105.3125 412.851562 106.367188 416.25 105.625 C 429.296875 103.046875 441.679688 99.257812 453.75 94.375 C 446.796875 103.75 438.203125 111.757812 428.125 117.8125 C 423.554688 120.039062 421.40625 125.3125 423.085938 130.117188 C 424.726562 134.882812 429.726562 137.65625 434.6875 136.5625 C 444.6875 135.351562 453.59375 131.289062 463.125 128.75 C 454.570312 138.007812 445.195312 146.367188 435 153.75 C 432.226562 155.78125 430.703125 159.0625 430.9375 162.5 C 431.09375 166.5625 431.25 170.585938 431.25 174.6875 C 431.25 237.1875 407.265625 305.039062 361.5625 356.875 C 315.859375 408.710938 248.75 445 160.9375 445 C 121.054688 445 83.398438 436.171875 49.375 420.625 C 91.5625 417.382812 130.46875 402.460938 161.875 377.8125 C 165.15625 375.195312 166.445312 370.820312 165.117188 366.835938 C 163.789062 362.851562 160.117188 360.117188 155.9375 360 C 122.96875 359.414062 95.351562 340.234375 80.625 313.125 C 81.171875 313.125 81.640625 313.125 82.1875 313.125 C 92.070312 313.125 101.835938 311.875 110.9375 309.375 C 115.3125 308.085938 118.320312 304.023438 118.164062 299.453125 C 118.007812 294.882812 114.765625 290.976562 110.3125 290 C 74.726562 282.8125 48.046875 253.828125 41.875 217.8125 C 51.953125 221.289062 62.265625 224.023438 73.4375 224.375 C 78.007812 224.648438 82.148438 221.796875 83.554688 217.460938 C 84.960938 213.125 83.242188 208.359375 79.375 205.9375 C 55.625 190.039062 40 162.96875 40 132.1875 C 40 120.78125 42.96875 110.3125 46.875 100.3125 C 96.875 155.195312 166.875 191.640625 245.9375 195.625 C 249.0625 195.78125 252.109375 194.492188 254.140625 192.109375 C 256.171875 189.6875 256.953125 186.484375 256.25 183.4375 C 254.726562 176.953125 253.75 170.078125 253.75 163.125 C 253.75 114.140625 293.203125 74.6875 342.1875 74.6875 Z M 342.1875 74.6875 "/>
</g>
</svg>
